HIERARCHY
ROOT Hips
{
	OFFSET 0.00000 0.00000 0.00000
	CHANNELS 6 Xposition Yposition Zposition Zrotation Yrotation Xrotation 
	JOINT LHipJoint
	{
		OFFSET 0 0 0
		CHANNELS 3 Zrotation Yrotation Xrotation
		JOINT LeftUpLeg
		{
			OFFSET 1.33213 -1.58186 0.78596
			CHANNELS 3 Zrotation Yrotation Xrotation
			JOINT LeftLeg
			{
				OFFSET 2.29717 -6.31144 0.00000
				CHANNELS 3 Zrotation Yrotation Xrotation
				JOINT LeftFoot
				{
					OFFSET 2.38430 -6.55082 0.00000
					CHANNELS 3 Zrotation Yrotation Xrotation
					JOINT LeftToeBase
					{
						OFFSET 0.11863 -0.32594 1.77568
						CHANNELS 3 Zrotation Yrotation Xrotation
						End Site
						{
							OFFSET 0.00000 -0.00000 0.91633
						}
					}
				}
			}
		}
	}
	JOINT RHipJoint
	{
		OFFSET 0 0 0
		CHANNELS 3 Zrotation Yrotation Xrotation
		JOINT RightUpLeg
		{
			OFFSET -1.41575 -1.58186 0.78596
			CHANNELS 3 Zrotation Yrotation Xrotation
			JOINT RightLeg
			{
				OFFSET -2.42012 -6.64922 0.00000
				CHANNELS 3 Zrotation Yrotation Xrotation
				JOINT RightFoot
				{
					OFFSET -2.47254 -6.79327 0.00000
					CHANNELS 3 Zrotation Yrotation Xrotation
					JOINT RightToeBase
					{
						OFFSET -0.15219 -0.41813 1.93430
						CHANNELS 3 Zrotation Yrotation Xrotation
						End Site
						{
							OFFSET -0.00000 -0.00000 0.99984
						}
					}
				}
			}
		}
	}
	JOINT LowerBack
	{
		OFFSET 0 0 0
		CHANNELS 3 Zrotation Yrotation Xrotation
		JOINT Spine
		{
			OFFSET -0.04717 2.09389 -0.14516
			CHANNELS 3 Zrotation Yrotation Xrotation
			JOINT Spine1
			{
				OFFSET 0.02825 2.09433 -0.11325
				CHANNELS 3 Zrotation Yrotation Xrotation
				JOINT Neck
				{
					OFFSET 0 0 0
					CHANNELS 3 Zrotation Yrotation Xrotation
					JOINT Neck1
					{
						OFFSET -0.01210 1.39029 0.12448
						CHANNELS 3 Zrotation Yrotation Xrotation
						JOINT Head
						{
							OFFSET 0.09492 1.38365 0.14559
							CHANNELS 3 Zrotation Yrotation Xrotation
							End Site
							{
								OFFSET 0.03402 1.40343 0.03708
							}
						}
					}
				}
				JOINT LeftShoulder
				{
					OFFSET 0 0 0
					CHANNELS 3 Zrotation Yrotation Xrotation
					JOINT LeftArm
					{
						OFFSET 2.83352 1.10671 -0.20481
						CHANNELS 3 Zrotation Yrotation Xrotation
						JOINT LeftForeArm
						{
							OFFSET 4.77195 -0.00000 -0.00000
							CHANNELS 3 Zrotation Yrotation Xrotation
							JOINT LeftHand
							{
								OFFSET 2.98444 -0.00000 0.00000
								CHANNELS 3 Zrotation Yrotation Xrotation
								JOINT LeftFingerBase
								{
									OFFSET 0 0 0
									CHANNELS 3 Zrotation Yrotation Xrotation
									JOINT LeftHandIndex1
									{
										OFFSET 0.99228 -0.00000 0.00000
										CHANNELS 3 Zrotation Yrotation Xrotation
										End Site
										{
											OFFSET 0.80001 -0.00000 0.00000
										}
									}
								}
								JOINT LThumb
								{
									OFFSET 0 0 0
									CHANNELS 3 Zrotation Yrotation Xrotation
									End Site
									{
										OFFSET 0.81222 -0.00000 0.81222
									}
								}
							}
						}
					}
				}
				JOINT RightShoulder
				{
					OFFSET 0 0 0
					CHANNELS 3 Zrotation Yrotation Xrotation
					JOINT RightArm
					{
						OFFSET -3.23760 1.11106 0.06723
						CHANNELS 3 Zrotation Yrotation Xrotation
						JOINT RightForeArm
						{
							OFFSET -4.62052 -0.00000 0.00000
							CHANNELS 3 Zrotation Yrotation Xrotation
							JOINT RightHand
							{
								OFFSET -2.95332 -0.00000 0.00000
								CHANNELS 3 Zrotation Yrotation Xrotation
								JOINT RightFingerBase
								{
									OFFSET 0 0 0
									CHANNELS 3 Zrotation Yrotation Xrotation
									JOINT RightHandIndex1
									{
										OFFSET -0.99096 -0.00000 0.00000
										CHANNELS 3 Zrotation Yrotation Xrotation
										End Site
										{
											OFFSET -0.79893 -0.00000 0.00000
										}
									}
								}
								JOINT RThumb
								{
									OFFSET 0 0 0
									CHANNELS 3 Zrotation Yrotation Xrotation
									End Site
									{
										OFFSET -0.81113 -0.00000 0.81113
									}
								}
							}
						}
					}
				}
			}
		}
	}
}
MOTION
Frames: 12
Frame Time: .0083333
4.1029 16.1131 33.0266 0 0 0 0 0 0 -21 0 0 0 0 0 0 0 0 0 0 0 0 0 0 21 0 0 0 0 0 0 0 0 0 0 0 0 0 0 0 0 0 0 0 0 0 0 -16 0 0 21 0 0 11 0 0 0 -8 0 0 0 0 0 0 0 0 0 0 0 0 0 0 0 0 0 0 0 0 8 0 0 0 0 0 0 0 0 0 0 0 0 0 0 0 0 0
4.1029 16.1131 33.0266 -178.2130 -15.4281 -168.9670 0.0000 0.0000 0.0000 -19.9009 -6.4443 4.7111 0.0000 -0.0000 -0.0000 -0.0884 -6.4678 -1.6414 1.4044 7.4961 21.1937 0.0000 0.0000 0.0000 14.0692 7.3114 -31.9270 -1.5904 -7.9550 22.5775 -0.2980 6.5970 -10.0879 -0.0109 -0.6743 1.8531 -0.3413 -1.8130 -11.9536 0.9453 -2.4739 0.5450 0.7415 -1.2547 7.3501 -5.0670 -3.3420 -0.3733 10.1716 -4.3990 -5.2344 4.2896 -2.3906 -1.2496 0.0000 -0.0000 0.0000 -91.0343 -5.1783 23.3024 9.6290 -16.1572 -1.3699 -0.0000 -0.0000 28.3979 9.8148 8.3293 1.4356 -7.1250 0.0000 -0.0000 -14.5634 38.0471 2.5583 0.0000 -0.0000 0.0000 94.0850 -2.2772 -12.7390 -12.1718 20.0618 -2.1609 0.0000 0.0000 38.1147 -1.4073 -7.4131 0.1816 7.1250 -0.0000 -0.0000 21.2113 -36.6027 4.6410
4.0984 16.1113 33.0250 -178.0440 -15.5933 -169.0290 0.0000 0.0000 0.0000 -19.6688 -6.8210 4.1315 0.0051 0.4620 1.2695 -0.0931 -6.9533 -2.1276 1.5655 7.8954 22.3969 0.0000 0.0000 0.0000 14.3287 7.0632 -31.8596 -1.5572 -7.8755 22.3365 -0.2903 6.5985 -9.9777 -0.0039 -0.4049 1.1125 -0.1604 -1.8977 -11.8987 1.0157 -2.6194 0.4936 0.6902 -1.3214 7.2620 -5.1256 -3.3930 -0.2364 10.2302 -4.4657 -5.3455 4.3287 -2.4297 -1.3025 0.0000 0.0000 0.0000 -91.0689 -5.1135 22.5049 9.4339 -15.8492 -1.3161 -0.0000 -0.0000 29.2526 9.7289 8.5303 1.4568 -7.1250 0.0000 -0.0000 -14.6798 38.2381 2.5090 0.0000 0.0000 0.0000 94.0732 -2.3615 -12.9557 -12.1069 19.9647 -2.1386 0.0000 0.0000 38.0948 -1.5257 -7.4883 0.1989 7.1250 -0.0000 -0.0000 21.1369 -36.6806 4.5798
4.0931 16.1117 33.0225 -177.9470 -15.7294 -169.0730 0.0000 0.0000 0.0000 -19.6171 -6.6662 4.8240 0.0000 -0.0000 -0.0000 -0.0871 -6.4440 -1.6661 1.7426 8.3080 23.6536 0.0000 0.0000 0.0000 14.4332 6.9501 -31.8786 -1.5661 -7.8970 22.4016 -0.2962 6.6478 -10.0745 -0.0040 -0.4073 1.1191 -0.0161 -1.9632 -11.8752 1.0411 -2.7293 0.4924 0.6168 -1.3704 7.2438 -5.1072 -3.4367 -0.2813 10.2532 -4.5233 -5.4141 4.3335 -2.4616 -1.3118 -0.0000 0.0000 0.0000 -91.0580 -5.1279 21.6136 9.1958 -15.4720 -1.2518 -0.0000 -0.0000 30.0653 9.7819 8.5974 1.4764 -7.1250 0.0000 -0.0000 -14.6506 38.3076 2.4781 -0.0000 0.0000 0.0000 94.0916 -2.3795 -13.0919 -12.0853 19.9325 -2.1313 0.0000 0.0000 38.2189 -1.5100 -7.6122 0.2001 7.1250 -0.0000 -0.0000 21.1832 -36.7951 4.5276
4.0885 16.1143 33.0167 -177.9580 -15.8432 -169.2920 0.0000 0.0000 0.0000 -19.6446 -6.6787 5.1225 0.0000 -0.0000 -0.0000 -0.0878 -6.4784 -1.6858 1.8764 8.6037 24.5632 0.0000 0.0000 0.0000 14.4388 6.7742 -31.6305 -1.5739 -7.9156 22.4579 -0.2730 6.6217 -9.7291 -0.0000 -0.0390 0.1072 0.0344 -2.0306 -11.6933 1.0040 -2.8192 0.5657 0.5385 -1.4104 7.2159 -4.8594 -3.4991 -0.1585 10.1386 -4.6033 -5.6545 4.2536 -2.5145 -1.4134 0.0000 -0.0000 0.0000 -91.0048 -5.1845 20.6144 8.9445 -15.0719 -1.1856 -0.0000 -0.0000 30.9528 9.8079 8.4283 1.4515 -7.1250 0.0000 -0.0000 -14.5911 38.1437 2.5278 0.0000 -0.0000 0.0000 94.1368 -2.3995 -13.1064 -12.0652 19.9023 -2.1244 0.0000 0.0000 38.2700 -1.4971 -7.6776 0.2001 7.1250 -0.0000 -0.0000 21.2115 -36.8553 4.5011
4.0888 16.1142 33.0107 -177.9630 -15.7897 -169.6780 0.0000 0.0000 0.0000 -19.6686 -6.4596 5.5741 0.0000 0.0000 0.0000 -0.0898 -6.5760 -1.7393 1.9593 8.7808 25.1120 0.0000 0.0000 0.0000 14.4712 6.7388 -31.1953 -1.5858 -7.9440 22.5441 -0.2052 6.3336 -8.5956 -0.0720 1.7316 -4.7646 0.0242 -2.0738 -11.3166 0.9751 -2.8666 0.6698 0.5174 -1.4319 7.1127 -4.6034 -3.5590 0.0878 9.9774 -4.6781 -5.9419 4.1618 -2.5664 -1.5547 -0.0000 0.0000 0.0000 -90.9549 -5.1804 19.6835 8.7848 -14.8168 -1.1445 -0.0000 -0.0000 31.7176 9.7183 8.2734 1.4117 -7.1250 0.0000 -0.0000 -14.6315 37.9857 2.5936 -0.0000 0.0000 0.0000 94.1556 -2.4341 -13.0763 -12.0235 19.8399 -2.1103 0.0000 0.0000 38.3508 -1.5096 -7.6520 0.2011 7.1250 -0.0000 -0.0000 21.1944 -36.8323 4.5097
4.0878 16.1072 33.0044 -177.9540 -15.8869 -170.1430 0.0000 0.0000 0.0000 -19.6826 -6.3627 6.1203 0.0000 0.0000 0.0000 -0.0909 -6.6475 -1.7965 2.1777 9.2268 26.5072 0.0000 0.0000 0.0000 14.5399 6.6296 -30.6988 -1.5985 -7.9742 22.6358 -0.2162 6.2600 -8.7544 -0.0921 1.9577 -5.3889 0.0054 -2.1861 -10.8846 0.9971 -3.0089 0.8047 0.5407 -1.5015 7.0151 -4.5927 -3.5535 0.1486 9.9365 -4.6689 -6.0330 4.1498 -2.5646 -1.5975 0.0000 -0.0000 0.0000 -90.9506 -5.1184 18.9450 8.6935 -14.6706 -1.1212 -0.0000 -0.0000 32.2235 9.7201 8.1765 1.3956 -7.1250 0.0000 -0.0000 -14.6086 37.8908 2.6243 0.0000 -0.0000 0.0000 94.1081 -2.4482 -13.0202 -12.0083 19.8171 -2.1051 0.0000 0.0000 38.4496 -1.4253 -7.7336 0.1918 7.1250 -0.0000 -0.0000 21.2845 -36.9025 4.4921
4.0861 16.1007 33.0017 -177.8990 -15.7937 -170.1950 0.0000 0.0000 0.0000 -19.6558 -6.2445 6.1463 0.0000 -0.0000 -0.0000 -0.0904 -6.6645 -1.8381 2.1462 9.1642 26.3103 0.0000 0.0000 0.0000 14.6564 6.5560 -30.7491 -1.6046 -7.9888 22.6800 -0.2790 6.7269 -9.8446 -0.0002 0.0986 -0.2710 0.0370 -2.2020 -10.8194 1.0236 -3.0360 0.7910 0.5491 -1.5146 6.9638 -4.5577 -3.5251 0.1690 9.9014 -4.6313 -6.0381 4.1314 -2.5462 -1.6074 -0.0000 -0.0000 0.0000 -90.9030 -4.9644 18.4877 8.6149 -14.5446 -1.1014 -0.0000 -0.0000 32.4754 9.7232 8.2932 1.4158 -7.1250 0.0000 -0.0000 -14.6318 38.0054 2.5864 -0.0000 -0.0000 0.0000 94.1189 -2.5292 -13.0568 -12.0469 19.8750 -2.1182 0.0000 0.0000 38.4289 -1.2895 -7.9431 0.1782 7.1250 -0.0000 -0.0000 21.4515 -37.0883 4.4274
4.0858 16.1015 32.9995 -177.8290 -15.7114 -170.2350 0.0000 0.0000 0.0000 -19.5911 -6.1423 6.1559 0.0000 0.0000 0.0000 -0.0905 -6.6786 -1.8571 2.1256 9.1229 26.1805 0.0000 0.0000 0.0000 14.7477 6.5911 -30.7044 -1.6019 -7.9824 22.6606 -0.2762 6.7390 -9.8074 -0.0000 -0.0122 0.0335 0.0867 -2.1923 -10.6995 1.0361 -3.0300 0.7371 0.5412 -1.5111 6.8363 -4.4243 -3.5338 0.2272 9.8519 -4.6434 -6.0597 4.0904 -2.5563 -1.6278 0.0000 -0.0000 0.0000 -90.8430 -4.7480 17.9793 8.5359 -14.4177 -1.0816 -0.0000 -0.0000 32.8654 9.5558 8.3308 1.3972 -7.1250 0.0000 -0.0000 -14.7796 38.0306 2.6045 0.0000 -0.0000 0.0000 94.1799 -2.6832 -13.0730 -12.0766 19.9194 -2.1283 0.0000 0.0000 38.3928 -1.3899 -7.9584 0.1925 7.1250 -0.0000 -0.0000 21.3752 -37.1094 4.3979
4.0848 16.1056 32.9958 -177.7820 -15.6371 -170.2310 0.0000 0.0000 0.0000 -19.5390 -6.0622 6.1394 0.0000 -0.0000 -0.0000 -0.0911 -6.6986 -1.8601 2.1259 9.1236 26.1826 0.0000 0.0000 0.0000 14.7942 6.6573 -30.6472 -1.5945 -7.9648 22.6073 -0.2049 6.3421 -8.5933 -0.0685 1.6883 -4.6451 0.1496 -2.1723 -10.6794 1.0192 -3.0103 0.7109 0.4928 -1.4993 6.7925 -4.2811 -3.5682 0.2624 9.8470 -4.6897 -6.1151 4.0638 -2.5864 -1.6517 -0.0000 -0.0000 0.0000 -90.7625 -4.6037 17.3304 8.4390 -14.2619 -1.0576 -0.0000 -0.0000 33.4474 9.4291 7.9859 1.3217 -7.1250 0.0000 -0.0000 -14.8088 37.6844 2.7394 -0.0000 -0.0000 0.0000 94.2431 -2.8056 -12.8587 -12.0988 19.9527 -2.1359 0.0000 0.0000 38.2490 -1.6316 -7.8870 0.2239 7.1250 -0.0000 -0.0000 21.1611 -37.0597 4.3761
4.0822 16.1028 32.9909 -177.7590 -15.5755 -170.1950 0.0000 0.0000 0.0000 -19.5202 -6.0066 6.0995 0.0000 -0.0000 -0.0000 -0.0924 -6.7286 -1.8460 2.1296 9.1310 26.2061 0.0000 0.0000 0.0000 14.8326 6.6677 -30.6857 -1.5925 -7.9601 22.5930 -0.2713 6.6955 -9.7239 -0.0003 -0.1059 0.2909 0.1996 -2.1756 -10.7658 1.0052 -3.0213 0.7143 0.4448 -1.5023 6.8419 -4.1882 -3.5753 0.2559 9.8319 -4.6997 -6.1404 4.0410 -2.5949 -1.6603 0.0000 -0.0000 0.0000 -90.6955 -4.5160 16.6905 8.3490 -14.1169 -1.0356 -0.0000 -0.0000 33.9868 9.4829 7.7850 1.2962 -7.1250 0.0000 -0.0000 -14.7204 37.4913 2.7939 0.0000 -0.0000 0.0000 94.2906 -2.8294 -12.6902 -12.1453 20.0222 -2.1518 0.0000 0.0000 38.1169 -1.6705 -7.9251 0.2304 7.1250 -0.0000 -0.0000 21.1403 -37.0980 4.3502
4.0814 16.1013 32.9883 -177.7660 -15.4998 -170.1550 0.0000 0.0000 0.0000 -19.5284 -5.9449 6.0523 0.0000 -0.0000 -0.0000 -0.0933 -6.7474 -1.8350 2.1288 9.1294 26.2009 0.0000 0.0000 0.0000 14.8357 6.7309 -30.7244 -1.5935 -7.9625 22.6003 -0.2956 6.7969 -10.1020 -0.0087 -0.6037 1.6590 0.1390 -2.2195 -10.8225 1.0472 -3.0757 0.7266 0.5113 -1.5319 6.8934 -4.2257 -3.5444 0.2049 9.8239 -4.6584 -6.1511 4.0441 -2.5727 -1.6572 0.0000 -0.0000 0.0000 -90.7488 -4.4627 15.9520 8.2688 -13.9876 -1.0161 -0.0000 -0.0000 34.6248 9.6066 7.9462 1.3404 -7.1250 0.0000 -0.0000 -14.6527 37.6574 2.7189 0.0000 -0.0000 0.0000 94.2364 -2.7609 -12.5505 -12.1587 20.0422 -2.1564 0.0000 0.0000 38.0660 -1.7059 -8.0290 0.2383 7.1250 -0.0000 -0.0000 21.1406 -37.1974 4.2953
